<?xml version="1.0" encoding="UTF-8"?><svg xmlns="http://www.w3.org/2000/svg" xmlns:xlink="http://www.w3.org/1999/xlink" fill-opacity="1" color-rendering="auto" color-interpolation="auto" text-rendering="auto" stroke="black" stroke-linecap="square" width="1071" stroke-miterlimit="10" shape-rendering="auto" stroke-opacity="1" fill="black" stroke-dasharray="none" font-weight="normal" stroke-width="1" height="418" font-family="'Dialog'" font-style="normal" stroke-linejoin="miter" font-size="12px" stroke-dashoffset="0" image-rendering="auto">
  <!--Generated by ySVG 2.5-->
  <defs id="genericDefs"/>
  <g>
    <defs id="defs1">
      <clipPath clipPathUnits="userSpaceOnUse" id="clipPath1">
        <path d="M0 0 L1071 0 L1071 418 L0 418 L0 0 Z"/>
      </clipPath>
      <clipPath clipPathUnits="userSpaceOnUse" id="clipPath2">
        <path d="M-38 -272 L1033 -272 L1033 146 L-38 146 L-38 -272 Z"/>
      </clipPath>
    </defs>
    <g fill="white" text-rendering="geometricPrecision" shape-rendering="geometricPrecision" transform="translate(38,272)" stroke="white">
      <rect x="-38" width="1071" height="418" y="-272" clip-path="url(#clipPath2)" stroke="none"/>
    </g>
    <g fill="rgb(51,204,255)" text-rendering="geometricPrecision" shape-rendering="geometricPrecision" transform="matrix(1,0,0,1,38,272)" stroke="rgb(51,204,255)">
      <rect x="-22.9701" width="183.08" height="48" y="-235.409" clip-path="url(#clipPath2)" stroke="none"/>
    </g>
    <g text-rendering="geometricPrecision" stroke-miterlimit="1.45" shape-rendering="geometricPrecision" transform="matrix(1,0,0,1,38,272)" stroke-linecap="butt">
      <rect fill="none" x="-22.9701" width="183.08" height="48" y="-235.409" clip-path="url(#clipPath2)"/>
      <text x="12.9527" font-size="14px" y="-205.9095" clip-path="url(#clipPath2)" font-family="sans-serif" stroke="none" font-weight="bold" xml:space="preserve">BaseComponent</text>
    </g>
    <g fill="rgb(51,153,102)" text-rendering="geometricPrecision" shape-rendering="geometricPrecision" transform="matrix(1,0,0,1,38,272)" stroke="rgb(51,153,102)">
      <rect x="248.512" width="183.08" height="48" y="-235.409" clip-path="url(#clipPath2)" stroke="none"/>
    </g>
    <g text-rendering="geometricPrecision" stroke-miterlimit="1.45" shape-rendering="geometricPrecision" transform="matrix(1,0,0,1,38,272)" stroke-linecap="butt">
      <rect fill="none" x="248.512" width="183.08" height="48" y="-235.409" clip-path="url(#clipPath2)"/>
      <text x="261.49" font-size="14px" y="-205.9095" clip-path="url(#clipPath2)" font-family="sans-serif" stroke="none" font-weight="bold" xml:space="preserve">BaseLayoutComponent</text>
    </g>
    <g fill="rgb(204,51,255)" text-rendering="geometricPrecision" shape-rendering="geometricPrecision" transform="matrix(1,0,0,1,38,272)" stroke="rgb(204,51,255)">
      <rect x="519.9941" width="183.08" height="48" y="-235.409" clip-path="url(#clipPath2)" stroke="none"/>
    </g>
    <g text-rendering="geometricPrecision" stroke-miterlimit="1.45" shape-rendering="geometricPrecision" transform="matrix(1,0,0,1,38,272)" stroke-linecap="butt">
      <rect fill="none" x="519.9941" width="183.08" height="48" y="-235.409" clip-path="url(#clipPath2)"/>
      <text x="523.248" font-size="14px" y="-205.9095" clip-path="url(#clipPath2)" font-family="sans-serif" stroke="none" font-weight="bold" xml:space="preserve">BaseContainerComponent</text>
    </g>
    <g fill="rgb(255,102,0)" text-rendering="geometricPrecision" shape-rendering="geometricPrecision" transform="matrix(1,0,0,1,38,272)" stroke="rgb(255,102,0)">
      <rect x="791.4762" width="183.08" height="48" y="-235.409" clip-path="url(#clipPath2)" stroke="none"/>
    </g>
    <g text-rendering="geometricPrecision" stroke-miterlimit="1.45" shape-rendering="geometricPrecision" transform="matrix(1,0,0,1,38,272)" stroke-linecap="butt">
      <rect fill="none" x="791.4762" width="183.08" height="48" y="-235.409" clip-path="url(#clipPath2)"/>
      <text x="813.006" font-size="14px" y="-205.9095" clip-path="url(#clipPath2)" font-family="sans-serif" stroke="none" font-weight="bold" xml:space="preserve">BaseTextComponent</text>
    </g>
    <g fill="rgb(204,51,255)" text-rendering="geometricPrecision" shape-rendering="geometricPrecision" transform="matrix(1,0,0,1,38,272)" stroke="rgb(204,51,255)">
      <rect x="563.0811" width="183.08" height="48" y="-79.409" clip-path="url(#clipPath2)" stroke="none"/>
    </g>
    <g text-rendering="geometricPrecision" stroke-miterlimit="1.45" shape-rendering="geometricPrecision" transform="matrix(1,0,0,1,38,272)" stroke-linecap="butt">
      <rect fill="none" x="563.0811" width="183.08" height="48" y="-79.409" clip-path="url(#clipPath2)"/>
      <text x="621.9521" font-size="14px" y="-49.9095" clip-path="url(#clipPath2)" font-family="sans-serif" stroke="none" font-weight="bold" xml:space="preserve">Container</text>
    </g>
    <g fill="rgb(51,153,102)" text-rendering="geometricPrecision" shape-rendering="geometricPrecision" transform="matrix(1,0,0,1,38,272)" stroke="rgb(51,153,102)">
      <rect x="291.599" width="183.08" height="48" y="-157.409" clip-path="url(#clipPath2)" stroke="none"/>
    </g>
    <g text-rendering="geometricPrecision" stroke-miterlimit="1.45" shape-rendering="geometricPrecision" transform="matrix(1,0,0,1,38,272)" stroke-linecap="butt">
      <rect fill="none" x="291.599" width="183.08" height="48" y="-157.409" clip-path="url(#clipPath2)"/>
      <text x="362.908" font-size="14px" y="-127.9095" clip-path="url(#clipPath2)" font-family="sans-serif" stroke="none" font-weight="bold" xml:space="preserve">Image</text>
    </g>
    <g fill="rgb(204,51,255)" text-rendering="geometricPrecision" shape-rendering="geometricPrecision" transform="matrix(1,0,0,1,38,272)" stroke="rgb(204,51,255)">
      <rect x="563.0811" width="183.08" height="48" y="-157.409" clip-path="url(#clipPath2)" stroke="none"/>
    </g>
    <g text-rendering="geometricPrecision" stroke-miterlimit="1.45" shape-rendering="geometricPrecision" transform="matrix(1,0,0,1,38,272)" stroke-linecap="butt">
      <rect fill="none" x="563.0811" width="183.08" height="48" y="-157.409" clip-path="url(#clipPath2)"/>
      <text x="637.8901" font-size="14px" y="-127.9095" clip-path="url(#clipPath2)" font-family="sans-serif" stroke="none" font-weight="bold" xml:space="preserve">Page</text>
    </g>
    <g fill="rgb(51,153,102)" text-rendering="geometricPrecision" shape-rendering="geometricPrecision" transform="matrix(1,0,0,1,38,272)" stroke="rgb(51,153,102)">
      <rect x="291.599" width="183.08" height="48" y="-79.409" clip-path="url(#clipPath2)" stroke="none"/>
    </g>
    <g text-rendering="geometricPrecision" stroke-miterlimit="1.45" shape-rendering="geometricPrecision" transform="matrix(1,0,0,1,38,272)" stroke-linecap="butt">
      <rect fill="none" x="291.599" width="183.08" height="48" y="-79.409" clip-path="url(#clipPath2)"/>
      <text x="334.5047" font-size="14px" y="-49.9095" clip-path="url(#clipPath2)" font-family="sans-serif" stroke="none" font-weight="bold" xml:space="preserve">RepeatVertical</text>
    </g>
    <g fill="rgb(204,51,255)" text-rendering="geometricPrecision" shape-rendering="geometricPrecision" transform="matrix(1,0,0,1,38,272)" stroke="rgb(204,51,255)">
      <rect x="563.0811" width="183.08" height="48" y="4.591" clip-path="url(#clipPath2)" stroke="none"/>
    </g>
    <g text-rendering="geometricPrecision" stroke-miterlimit="1.45" shape-rendering="geometricPrecision" transform="matrix(1,0,0,1,38,272)" stroke-linecap="butt">
      <rect fill="none" x="563.0811" width="183.08" height="48" y="4.591" clip-path="url(#clipPath2)"/>
      <text x="601.7212" font-size="14px" y="34.0905" clip-path="url(#clipPath2)" font-family="sans-serif" stroke="none" font-weight="bold" xml:space="preserve">StackHorizontal</text>
    </g>
    <g fill="rgb(204,51,255)" text-rendering="geometricPrecision" shape-rendering="geometricPrecision" transform="matrix(1,0,0,1,38,272)" stroke="rgb(204,51,255)">
      <rect x="563.0811" width="183.08" height="48" y="82.591" clip-path="url(#clipPath2)" stroke="none"/>
    </g>
    <g text-rendering="geometricPrecision" stroke-miterlimit="1.45" shape-rendering="geometricPrecision" transform="matrix(1,0,0,1,38,272)" stroke-linecap="butt">
      <rect fill="none" x="563.0811" width="183.08" height="48" y="82.591" clip-path="url(#clipPath2)"/>
      <text x="610.6489" font-size="14px" y="112.0905" clip-path="url(#clipPath2)" font-family="sans-serif" stroke="none" font-weight="bold" xml:space="preserve">StackVertical</text>
    </g>
    <g fill="rgb(51,153,102)" text-rendering="geometricPrecision" shape-rendering="geometricPrecision" transform="matrix(1,0,0,1,38,272)" stroke="rgb(51,153,102)">
      <rect x="291.599" width="183.08" height="48" y="4.591" clip-path="url(#clipPath2)" stroke="none"/>
    </g>
    <g text-rendering="geometricPrecision" stroke-miterlimit="1.45" shape-rendering="geometricPrecision" transform="matrix(1,0,0,1,38,272)" stroke-linecap="butt">
      <rect fill="none" x="291.599" width="183.08" height="48" y="4.591" clip-path="url(#clipPath2)"/>
      <text x="364.8563" font-size="14px" y="34.0905" clip-path="url(#clipPath2)" font-family="sans-serif" stroke="none" font-weight="bold" xml:space="preserve">Table</text>
    </g>
    <g fill="rgb(255,102,0)" text-rendering="geometricPrecision" shape-rendering="geometricPrecision" transform="matrix(1,0,0,1,38,272)" stroke="rgb(255,102,0)">
      <rect x="834.5632" width="183.08" height="48" y="-157.409" clip-path="url(#clipPath2)" stroke="none"/>
    </g>
    <g text-rendering="geometricPrecision" stroke-miterlimit="1.45" shape-rendering="geometricPrecision" transform="matrix(1,0,0,1,38,272)" stroke-linecap="butt">
      <rect fill="none" x="834.5632" width="183.08" height="48" y="-157.409" clip-path="url(#clipPath2)"/>
      <text x="911.7101" font-size="14px" y="-127.9095" clip-path="url(#clipPath2)" font-family="sans-serif" stroke="none" font-weight="bold" xml:space="preserve">Text</text>
      <path fill="none" d="M160.1099 -211.409 L248.512 -211.409" clip-path="url(#clipPath2)"/>
      <path fill="none" d="M431.592 -211.409 L519.9941 -211.409" clip-path="url(#clipPath2)"/>
      <path fill="none" d="M431.592 -211.409 L462.2157 -211.409 L462.2157 -256.508 L752.0645 -256.508 L752.0645 -211.409 L791.4763 -211.409" clip-path="url(#clipPath2)"/>
      <path fill="none" d="M543.196 -187.4093 L543.5131 -55.409 L563.0811 -55.409" clip-path="url(#clipPath2)"/>
      <path fill="none" d="M271.7863 -187.4415 L271.7863 -133.409 L291.599 -133.409" clip-path="url(#clipPath2)"/>
      <path fill="none" d="M543.1189 -187.3894 L543.3809 -133.409 L563.0811 -133.409" clip-path="url(#clipPath2)"/>
      <path fill="none" d="M271.6842 -187.4286 L271.6842 -55.409 L291.599 -55.409" clip-path="url(#clipPath2)"/>
      <path fill="none" d="M563.0811 28.591 L543.453 28.591 L543.453 -187.3816" clip-path="url(#clipPath2)"/>
      <path fill="none" d="M543.4315 -187.3886 L543.4315 106.591 L563.0811 106.591" clip-path="url(#clipPath2)"/>
      <path fill="none" d="M291.599 28.591 L271.7278 28.591 L271.7863 -133.409 L271.7489 -187.3904" clip-path="url(#clipPath2)"/>
      <path fill="none" d="M818.7681 -187.4409 L818.7681 -133.409 L834.5632 -133.409" clip-path="url(#clipPath2)"/>
    </g>
  </g>
</svg>
